<?xml version="1.0" encoding="iso-8859-1"?>
<!-- Uploaded to: SVG Repo, www.svgrepo.com, Generator: SVG Repo Mixer Tools -->
<svg height="800px" width="800px" version="1.1" id="Capa_1" xmlns="http://www.w3.org/2000/svg" xmlns:xlink="http://www.w3.org/1999/xlink" 
	 viewBox="0 0 202.96 202.96" xml:space="preserve">
<g>
	<g>
		<path style="fill:#010002;" d="M35.205,107.536C15.793,107.536,0,123.333,0,142.744c0,19.415,15.797,35.209,35.205,35.209
			c19.415,0,35.209-15.793,35.209-35.209C70.414,123.333,54.62,107.536,35.205,107.536z M35.205,174.439
			c-17.472,0-31.684-14.219-31.684-31.691s14.212-31.687,31.684-31.687c17.476,0,31.687,14.212,31.687,31.687
			S52.681,174.439,35.205,174.439z"/>
		<path style="fill:#010002;" d="M167.744,107.536c-19.412,0-35.209,15.797-35.209,35.209c0,19.415,15.797,35.209,35.209,35.209
			c19.422,0,35.216-15.793,35.216-35.209C202.957,123.333,187.163,107.536,167.744,107.536z M167.744,174.439
			c-17.472,0-31.687-14.219-31.687-31.691s14.215-31.687,31.687-31.687c17.476,0,31.691,14.212,31.691,31.687
			S185.216,174.439,167.744,174.439z"/>
		<path style="fill:#010002;" d="M87.22,79.474l-2.319,0.05l8.285,43.895l0.616,2.974l2.312-2.015c0.82-0.712,6.75-3.568,8.36-4.191
			c9.012-3.468,10.339-10.508,10.325-14.391C114.792,96.964,98.025,79.474,87.22,79.474z M103.21,116.901
			c-0.68,0.258-4.402,1.929-7.036,3.35l-6.993-37.027c8.854,1.979,22.089,16.015,22.099,22.583
			C111.295,109.447,109.903,114.325,103.21,116.901z"/>
		<path style="fill:#010002;" d="M125.693,85.891l4.763,1.052c3.357,0.73,6.624,0.573,9.598-0.48
			c4.012,4.871,8.052,9.717,12.046,14.391c2.484,3.575,10.307,3.858,10.382,3.858h27.081c5.78,0,10.486-4.703,10.486-10.49
			c0-5.776-4.703-10.482-10.486-10.482h-23.205c-4.985-5.862-9.885-11.792-14.763-17.744c-1.102-6.299-5.515-10.729-12.193-12.197
			L82.174,41.202c-1.711-0.372-3.403-0.562-5.028-0.562c-10.114,0-16.445,7.233-18.12,14.061c-1.288,2.262-0.551,4.681,0.111,6.828
			c0.218,0.709,0.44,1.432,0.583,2.158l17.984,89.969c1.17,5.837,6.338,10.082,12.283,10.082c0.823,0,1.661-0.086,2.473-0.251
			c6.785-1.356,11.195-7.974,9.835-14.759l-1.532-7.691c2.086,0.283,4.155,0.007,6.066-0.73
			c23.062-8.872,26.473-24.011,26.462-32.253C133.276,100.968,130.66,93.378,125.693,85.891z M105.565,137.018
			c-2.008,0.777-4.219,0.837-6.449-0.014l-2.978-1.145l2.713,13.567c0.973,4.871-2.197,9.634-7.086,10.608
			c-4.914,1.006-9.641-2.301-10.601-7.072L63.177,62.997c-0.165-0.837-0.419-1.675-0.673-2.494
			c-0.608-1.993-0.934-3.264-0.354-4.169l0.24-0.569c1.27-5.594,6.424-11.606,14.756-11.606c1.374,0,2.809,0.161,4.266,0.487
			l57.233,12.598c7.304,1.603,9.112,6.803,9.541,9.76l0.072,0.487l0.308,0.376c5.171,6.299,10.361,12.583,15.632,18.782l0.526,0.619
			h24.837c3.837,0,6.961,3.124,6.961,6.961c0,3.844-3.124,6.968-6.961,6.968H162.48c-1.46,0-6.438-0.83-7.598-2.487
			c-4.37-5.114-8.664-10.289-12.934-15.475l-0.863-1.041l-1.224,0.551c-2.609,1.181-5.551,1.435-8.65,0.755l-14.004-3.081
			l2.974,3.84c6.256,8.07,9.566,16.305,9.584,23.807C129.783,115.395,126.659,128.905,105.565,137.018z"/>
		<path style="fill:#010002;" d="M167.751,63.097c10.497,0,19.039-8.546,19.039-19.047s-8.546-19.043-19.039-19.043
			c-10.508,0-19.05,8.543-19.05,19.043S157.244,63.097,167.751,63.097z M167.751,28.529c8.553,0,15.518,6.964,15.518,15.521
			c0,8.561-6.964,15.525-15.518,15.525c-8.561,0-15.529-6.964-15.529-15.525C152.223,35.493,159.191,28.529,167.751,28.529z"/>
	</g>
</g>
</svg>